<?xml version="1.0" encoding="UTF-8"?>
<svg xmlns="http://www.w3.org/2000/svg" xmlns:xlink="http://www.w3.org/1999/xlink" viewBox="0 0 50 50" width="50px" height="50px">
<g id="surface1629023">
<path style=" stroke:none;fill-rule:nonzero;fill:rgb(40.000001%,40.000001%,40.000001%);fill-opacity:1;" d="M 9 4 C 6.25 4 4 6.25 4 9 L 4 41 C 4 43.75 6.25 46 9 46 L 41 46 C 43.75 46 46 43.75 46 41 L 46 9 C 46 6.25 43.75 4 41 4 Z M 9 6 L 41 6 C 42.671875 6 44 7.328125 44 9 L 44 41 C 44 42.671875 42.671875 44 41 44 L 9 44 C 7.328125 44 6 42.671875 6 41 L 6 9 C 6 7.328125 7.328125 6 9 6 Z M 26.042969 10 C 25.492188 10 25.042969 10.445312 25.042969 10.996094 C 25.042969 10.996094 25.03125 15.875 25.019531 20.757812 C 25.015625 23.203125 25.011719 25.648438 25.003906 27.488281 C 25 29.332031 25 30.496094 25 30.59375 C 25 32.410156 23.351562 33.894531 21.472656 33.894531 C 19.609375 33.894531 18.121094 32.402344 18.121094 30.539062 C 18.121094 28.675781 19.609375 27.1875 21.472656 27.1875 C 21.535156 27.1875 21.664062 27.207031 21.882812 27.234375 C 22.164062 27.269531 22.449219 27.179688 22.664062 26.988281 C 22.878906 26.800781 23 26.527344 23 26.238281 L 23 22.039062 C 23 21.511719 22.589844 21.074219 22.0625 21.039062 C 21.90625 21.03125 21.710938 21.011719 21.472656 21.011719 C 16.222656 21.011719 11.945312 25.289062 11.945312 30.539062 C 11.945312 35.789062 16.222656 40.066406 21.472656 40.066406 C 26.722656 40.066406 31 35.789062 31 30.539062 L 31 21.488281 C 32.453125 22.652344 34.265625 23.390625 36.269531 23.390625 C 36.542969 23.390625 36.800781 23.375 37.050781 23.351562 C 37.566406 23.304688 37.960938 22.871094 37.960938 22.355469 L 37.960938 17.683594 C 37.960938 17.160156 37.554688 16.726562 37.03125 16.6875 C 33.886719 16.460938 31.378906 14.011719 31.054688 10.894531 C 31 10.386719 30.570312 10 30.058594 10 Z M 27.042969 12 L 29.324219 12 C 30.050781 15.296875 32.625 17.8125 35.960938 18.445312 L 35.960938 21.308594 C 33.820312 21.203125 31.941406 20.136719 30.835938 18.453125 C 30.59375 18.082031 30.136719 17.917969 29.710938 18.042969 C 29.289062 18.171875 29 18.5625 29 19.003906 L 29 30.539062 C 29 34.707031 25.640625 38.066406 21.472656 38.066406 C 17.304688 38.066406 13.945312 34.707031 13.945312 30.539062 C 13.945312 26.539062 17.066406 23.363281 21 23.109375 L 21 25.285156 C 18.285156 25.535156 16.121094 27.761719 16.121094 30.539062 C 16.121094 33.484375 18.527344 35.894531 21.472656 35.894531 C 24.402344 35.894531 27 33.585938 27 30.59375 C 27 30.644531 27 29.335938 27.007812 27.496094 C 27.007812 25.652344 27.015625 23.207031 27.023438 20.765625 C 27.03125 16.375 27.039062 12.847656 27.042969 12 Z M 27.042969 12 "/>
</g>
</svg>
